<mxfile host="app.diagrams.net" modified="2022-11-29T18:53:39.060Z" agent="5.0 (Windows NT 10.0; Win64; x64) AppleWebKit/537.36 (KHTML, like Gecko) Chrome/106.0.0.0 Safari/537.36 OPR/92.0.0.0" etag="3Ka_TQjcHTvWZtaAdwOy" version="20.5.1" type="github">
  <diagram name="Page-1" id="5f0bae14-7c28-e335-631c-24af17079c00">
    <mxGraphModel dx="1381" dy="764" grid="1" gridSize="10" guides="1" tooltips="1" connect="1" arrows="1" fold="1" page="1" pageScale="1" pageWidth="1100" pageHeight="850" background="none" math="0" shadow="0">
      <root>
        <mxCell id="0" />
        <mxCell id="1" parent="0" />
        <mxCell id="39150e848f15840c-1" value="Docker Host" style="verticalAlign=top;align=left;spacingTop=8;spacingLeft=2;spacingRight=12;shape=cube;size=10;direction=south;fontStyle=4;html=1;rounded=0;shadow=0;comic=0;labelBackgroundColor=none;strokeWidth=1;fontFamily=Verdana;fontSize=12;fillColor=#cdeb8b;strokeColor=#36393d;" parent="1" vertex="1">
          <mxGeometry x="100" y="20" width="840" height="560" as="geometry" />
        </mxCell>
        <mxCell id="spupHWkrMuhrxoyX3Kec-63" value="Subnet mern-stack-net" style="verticalAlign=top;align=left;spacingTop=8;spacingLeft=2;spacingRight=12;shape=cube;size=10;direction=south;fontStyle=4;html=1;rounded=0;shadow=0;comic=0;labelBackgroundColor=none;strokeWidth=1;fontFamily=Verdana;fontSize=12;fillColor=#fff2cc;strokeColor=#d6b656;gradientColor=#ffd966;" vertex="1" parent="1">
          <mxGeometry x="130" y="60" width="770" height="500" as="geometry" />
        </mxCell>
        <mxCell id="spupHWkrMuhrxoyX3Kec-8" value="prometheus" style="verticalAlign=top;align=left;spacingTop=8;spacingLeft=2;spacingRight=12;shape=cube;size=10;direction=south;fontStyle=4;html=1;" vertex="1" parent="1">
          <mxGeometry x="330" y="390" width="150" height="140" as="geometry" />
        </mxCell>
        <mxCell id="spupHWkrMuhrxoyX3Kec-9" value="mongodb" style="verticalAlign=top;align=left;spacingTop=8;spacingLeft=2;spacingRight=12;shape=cube;size=10;direction=south;fontStyle=4;html=1;" vertex="1" parent="1">
          <mxGeometry x="560" y="390" width="140" height="140" as="geometry" />
        </mxCell>
        <mxCell id="spupHWkrMuhrxoyX3Kec-10" value="mern-backend" style="verticalAlign=top;align=left;spacingTop=8;spacingLeft=2;spacingRight=12;shape=cube;size=10;direction=south;fontStyle=4;html=1;" vertex="1" parent="1">
          <mxGeometry x="455" y="100" width="140" height="200" as="geometry" />
        </mxCell>
        <mxCell id="spupHWkrMuhrxoyX3Kec-11" value="mern-frontend&lt;br&gt;" style="verticalAlign=top;align=left;spacingTop=8;spacingLeft=2;spacingRight=12;shape=cube;size=10;direction=south;fontStyle=4;html=1;" vertex="1" parent="1">
          <mxGeometry x="160" y="100" width="130" height="200" as="geometry" />
        </mxCell>
        <mxCell id="spupHWkrMuhrxoyX3Kec-16" value="node:14-slim" style="verticalAlign=top;align=left;spacingTop=8;spacingLeft=2;spacingRight=12;shape=cube;size=10;direction=south;fontStyle=4;html=1;fillColor=#cce5ff;strokeColor=#36393d;" vertex="1" parent="1">
          <mxGeometry x="462.5" y="140" width="92.5" height="45" as="geometry" />
        </mxCell>
        <mxCell id="spupHWkrMuhrxoyX3Kec-17" value="prometheus:latest" style="verticalAlign=top;align=left;spacingTop=8;spacingLeft=2;spacingRight=12;shape=cube;size=10;direction=south;fontStyle=4;html=1;fillColor=#cce5ff;strokeColor=#36393d;" vertex="1" parent="1">
          <mxGeometry x="342.5" y="430" width="117.5" height="40" as="geometry" />
        </mxCell>
        <mxCell id="spupHWkrMuhrxoyX3Kec-24" value="mongo:latest" style="verticalAlign=top;align=left;spacingTop=8;spacingLeft=2;spacingRight=12;shape=cube;size=10;direction=south;fontStyle=4;html=1;fillColor=#cce5ff;strokeColor=#36393d;" vertex="1" parent="1">
          <mxGeometry x="575" y="430" width="95" height="40" as="geometry" />
        </mxCell>
        <mxCell id="spupHWkrMuhrxoyX3Kec-26" value="prometheus-data" style="verticalAlign=top;align=left;spacingTop=8;spacingLeft=2;spacingRight=12;shape=cube;size=10;direction=south;fontStyle=4;html=1;fillColor=#cce5ff;strokeColor=#36393d;" vertex="1" parent="1">
          <mxGeometry x="170" y="440" width="110" height="60" as="geometry" />
        </mxCell>
        <mxCell id="spupHWkrMuhrxoyX3Kec-27" value="&lt;i&gt;volume&lt;/i&gt;" style="text;html=1;resizable=0;autosize=1;align=center;verticalAlign=middle;points=[];fillColor=none;strokeColor=none;rounded=0;" vertex="1" parent="1">
          <mxGeometry x="170" y="470" width="60" height="30" as="geometry" />
        </mxCell>
        <mxCell id="spupHWkrMuhrxoyX3Kec-28" value="mongo-data" style="verticalAlign=top;align=left;spacingTop=8;spacingLeft=2;spacingRight=12;shape=cube;size=10;direction=south;fontStyle=4;html=1;fillColor=#cce5ff;strokeColor=#36393d;" vertex="1" parent="1">
          <mxGeometry x="750" y="440" width="110" height="60" as="geometry" />
        </mxCell>
        <mxCell id="spupHWkrMuhrxoyX3Kec-29" value="&lt;i&gt;volume&lt;/i&gt;" style="text;html=1;resizable=0;autosize=1;align=center;verticalAlign=middle;points=[];fillColor=none;strokeColor=none;rounded=0;" vertex="1" parent="1">
          <mxGeometry x="765" y="470" width="60" height="30" as="geometry" />
        </mxCell>
        <mxCell id="spupHWkrMuhrxoyX3Kec-31" value="NodeJs Backend" style="verticalAlign=top;align=left;spacingTop=8;spacingLeft=2;spacingRight=12;shape=cube;size=10;direction=south;fontStyle=4;html=1;fillColor=#cce5ff;strokeColor=#36393d;" vertex="1" parent="1">
          <mxGeometry x="460" y="190" width="115" height="45" as="geometry" />
        </mxCell>
        <mxCell id="spupHWkrMuhrxoyX3Kec-32" value="node:14-slim" style="verticalAlign=top;align=left;spacingTop=8;spacingLeft=2;spacingRight=12;shape=cube;size=10;direction=south;fontStyle=4;html=1;fillColor=#cce5ff;strokeColor=#36393d;" vertex="1" parent="1">
          <mxGeometry x="170" y="140" width="92.5" height="45" as="geometry" />
        </mxCell>
        <mxCell id="spupHWkrMuhrxoyX3Kec-33" value="React Frontend" style="verticalAlign=top;align=left;spacingTop=8;spacingLeft=2;spacingRight=12;shape=cube;size=10;direction=south;fontStyle=4;html=1;fillColor=#cce5ff;strokeColor=#36393d;" vertex="1" parent="1">
          <mxGeometry x="170" y="190" width="100" height="45" as="geometry" />
        </mxCell>
        <mxCell id="spupHWkrMuhrxoyX3Kec-35" value="EXPOSE&lt;br&gt;3000" style="shape=delay;whiteSpace=wrap;html=1;gradientDirection=south;fillColor=#fff2cc;gradientColor=#ffd966;strokeColor=#d6b656;" vertex="1" parent="1">
          <mxGeometry x="176.25" y="250" width="80" height="40" as="geometry" />
        </mxCell>
        <mxCell id="spupHWkrMuhrxoyX3Kec-36" value="EXPOSE&lt;br&gt;3001" style="shape=delay;whiteSpace=wrap;html=1;gradientDirection=south;fillColor=#fff2cc;gradientColor=#ffd966;strokeColor=#d6b656;" vertex="1" parent="1">
          <mxGeometry x="475" y="250" width="80" height="40" as="geometry" />
        </mxCell>
        <mxCell id="spupHWkrMuhrxoyX3Kec-37" value="EXPOSE&lt;br&gt;27017" style="shape=delay;whiteSpace=wrap;html=1;gradientDirection=south;fillColor=#fff2cc;gradientColor=#ffd966;strokeColor=#d6b656;" vertex="1" parent="1">
          <mxGeometry x="580" y="480" width="80" height="40" as="geometry" />
        </mxCell>
        <mxCell id="spupHWkrMuhrxoyX3Kec-38" value="EXPOSE&lt;br&gt;9090" style="shape=delay;whiteSpace=wrap;html=1;gradientDirection=south;fillColor=#fff2cc;gradientColor=#ffd966;strokeColor=#d6b656;" vertex="1" parent="1">
          <mxGeometry x="355" y="480" width="80" height="40" as="geometry" />
        </mxCell>
        <mxCell id="spupHWkrMuhrxoyX3Kec-43" value="" style="endArrow=block;dashed=1;endFill=0;endSize=12;html=1;rounded=0;entryX=0;entryY=0;entryDx=25;entryDy=0;entryPerimeter=0;exitX=0;exitY=0;exitDx=75;exitDy=150;exitPerimeter=0;" edge="1" parent="1" source="spupHWkrMuhrxoyX3Kec-8" target="spupHWkrMuhrxoyX3Kec-26">
          <mxGeometry width="160" relative="1" as="geometry">
            <mxPoint x="490" y="420" as="sourcePoint" />
            <mxPoint x="650" y="420" as="targetPoint" />
          </mxGeometry>
        </mxCell>
        <mxCell id="spupHWkrMuhrxoyX3Kec-44" value="" style="endArrow=block;dashed=1;endFill=0;endSize=12;html=1;rounded=0;entryX=0;entryY=0;entryDx=35;entryDy=110;entryPerimeter=0;exitX=0.614;exitY=-0.014;exitDx=0;exitDy=0;exitPerimeter=0;" edge="1" parent="1" source="spupHWkrMuhrxoyX3Kec-9" target="spupHWkrMuhrxoyX3Kec-28">
          <mxGeometry width="160" relative="1" as="geometry">
            <mxPoint x="840" y="570" as="sourcePoint" />
            <mxPoint x="770" y="570" as="targetPoint" />
          </mxGeometry>
        </mxCell>
        <mxCell id="spupHWkrMuhrxoyX3Kec-50" value="mern-frontend:3000" style="text;html=1;strokeColor=none;fillColor=none;align=center;verticalAlign=middle;whiteSpace=wrap;rounded=0;" vertex="1" parent="1">
          <mxGeometry x="320" y="220" width="110" height="30" as="geometry" />
        </mxCell>
        <mxCell id="spupHWkrMuhrxoyX3Kec-51" value="mern-backend:3001" style="text;html=1;strokeColor=none;fillColor=none;align=center;verticalAlign=middle;whiteSpace=wrap;rounded=0;" vertex="1" parent="1">
          <mxGeometry x="320" y="155" width="110" height="30" as="geometry" />
        </mxCell>
        <mxCell id="spupHWkrMuhrxoyX3Kec-54" value="mern-backend:3001/metrics" style="text;html=1;strokeColor=none;fillColor=none;align=center;verticalAlign=middle;whiteSpace=wrap;rounded=0;" vertex="1" parent="1">
          <mxGeometry x="295" y="340" width="160" height="30" as="geometry" />
        </mxCell>
        <mxCell id="spupHWkrMuhrxoyX3Kec-57" value="mongodb:27017/chat-app" style="text;html=1;strokeColor=none;fillColor=none;align=center;verticalAlign=middle;whiteSpace=wrap;rounded=0;" vertex="1" parent="1">
          <mxGeometry x="575" y="340" width="160" height="30" as="geometry" />
        </mxCell>
        <mxCell id="spupHWkrMuhrxoyX3Kec-58" value="" style="endArrow=classic;html=1;rounded=0;exitX=0;exitY=0;exitDx=0;exitDy=70;exitPerimeter=0;entryX=1.005;entryY=0.893;entryDx=0;entryDy=0;entryPerimeter=0;" edge="1" parent="1" source="spupHWkrMuhrxoyX3Kec-8" target="spupHWkrMuhrxoyX3Kec-10">
          <mxGeometry width="50" height="50" relative="1" as="geometry">
            <mxPoint x="540" y="430" as="sourcePoint" />
            <mxPoint x="590" y="380" as="targetPoint" />
            <Array as="points">
              <mxPoint x="470" y="350" />
            </Array>
          </mxGeometry>
        </mxCell>
        <mxCell id="spupHWkrMuhrxoyX3Kec-59" value="" style="endArrow=classic;html=1;rounded=0;exitX=1.005;exitY=0.257;exitDx=0;exitDy=0;exitPerimeter=0;entryX=0;entryY=0;entryDx=0;entryDy=65;entryPerimeter=0;" edge="1" parent="1" source="spupHWkrMuhrxoyX3Kec-10" target="spupHWkrMuhrxoyX3Kec-9">
          <mxGeometry width="50" height="50" relative="1" as="geometry">
            <mxPoint x="500" y="425" as="sourcePoint" />
            <mxPoint x="559.98" y="336" as="targetPoint" />
            <Array as="points">
              <mxPoint x="560" y="350" />
            </Array>
          </mxGeometry>
        </mxCell>
        <mxCell id="spupHWkrMuhrxoyX3Kec-60" value="" style="endArrow=classic;html=1;rounded=0;entryX=0.715;entryY=0;entryDx=0;entryDy=0;entryPerimeter=0;" edge="1" parent="1" target="spupHWkrMuhrxoyX3Kec-11">
          <mxGeometry width="50" height="50" relative="1" as="geometry">
            <mxPoint x="460" y="243" as="sourcePoint" />
            <mxPoint x="350" y="270" as="targetPoint" />
          </mxGeometry>
        </mxCell>
        <mxCell id="spupHWkrMuhrxoyX3Kec-61" value="" style="endArrow=classic;html=1;rounded=0;exitX=0.4;exitY=-0.038;exitDx=0;exitDy=0;exitPerimeter=0;" edge="1" parent="1" source="spupHWkrMuhrxoyX3Kec-11">
          <mxGeometry width="50" height="50" relative="1" as="geometry">
            <mxPoint x="512.5" y="200" as="sourcePoint" />
            <mxPoint x="450" y="180" as="targetPoint" />
          </mxGeometry>
        </mxCell>
        <mxCell id="spupHWkrMuhrxoyX3Kec-65" value="" style="ellipse;html=1;shape=startState;fillColor=#000000;strokeColor=#ff0000;" vertex="1" parent="1">
          <mxGeometry x="50" y="190" width="30" height="30" as="geometry" />
        </mxCell>
        <mxCell id="spupHWkrMuhrxoyX3Kec-66" value="" style="edgeStyle=orthogonalEdgeStyle;html=1;verticalAlign=bottom;endArrow=open;endSize=8;strokeColor=#ff0000;rounded=0;entryX=0;entryY=0;entryDx=105;entryDy=130;entryPerimeter=0;" edge="1" source="spupHWkrMuhrxoyX3Kec-65" parent="1" target="spupHWkrMuhrxoyX3Kec-11">
          <mxGeometry relative="1" as="geometry">
            <mxPoint x="55" y="355" as="targetPoint" />
            <Array as="points">
              <mxPoint x="100" y="205" />
              <mxPoint x="100" y="205" />
            </Array>
          </mxGeometry>
        </mxCell>
        <mxCell id="spupHWkrMuhrxoyX3Kec-67" value="localhost:3000" style="text;html=1;strokeColor=none;fillColor=none;align=center;verticalAlign=middle;whiteSpace=wrap;rounded=0;" vertex="1" parent="1">
          <mxGeometry x="60" y="180" width="110" height="30" as="geometry" />
        </mxCell>
        <mxCell id="spupHWkrMuhrxoyX3Kec-68" value="Browser" style="text;html=1;strokeColor=none;fillColor=none;align=center;verticalAlign=middle;whiteSpace=wrap;rounded=0;" vertex="1" parent="1">
          <mxGeometry x="20" y="210" width="110" height="30" as="geometry" />
        </mxCell>
      </root>
    </mxGraphModel>
  </diagram>
</mxfile>
